<svg id="Layer_1" data-name="Layer 1" xmlns="http://www.w3.org/2000/svg" viewBox="0 0 240.55 240.55"><defs><style>.cls-1{fill:#41af80;}</style></defs><title>Belio Icon</title><path class="cls-1" d="M188.09,129l-.33.58-25.7,42.21a57.7,57.7,0,0,1-42,27.35l-30.63,4-1.84-14,30.63-4A43.66,43.66,0,0,0,150,164.47l25.5-41.88c4.21-9.38,1.44-44.33-15.71-59.93C146,50.08,83.12,50.14,42.07,53.3L46,94.1a67.75,67.75,0,0,0,60.69,58.4l43.75,3.11,1.77.13-4.47,7.36a39.38,39.38,0,0,1-4.58,6.15l-.83-.06-36.91-2.62A81.78,81.78,0,0,1,32,95.85l0-.28L26.66,40.46l7.06-.64c11.36-1,111.57-9.46,135.59,12.4C182.26,64,187.48,82.28,189.44,92.13,192.42,107,191.91,121.18,188.09,129Z"/><polygon class="cls-1" points="213.89 162.89 212.52 176.95 164.79 172.49 172.94 159.11 213.89 162.89"/><circle class="cls-1" cx="151.74" cy="120.34" r="6.85"/></svg>